<svg width="13" height="11" viewBox="0 0 13 11" fill="none" xmlns="http://www.w3.org/2000/svg">
<path fill-rule="evenodd" clip-rule="evenodd" d="M6.50017 1.36744C5.09319 0.106827 2.92946 0.152558 1.57739 1.50463C0.17798 2.90404 0.17798 5.17293 1.57739 6.57233L5.65556 10.6505C6.12203 11.117 6.87832 11.117 7.34479 10.6505L11.423 6.57233C12.8224 5.17293 12.8224 2.90404 11.423 1.50463C10.0709 0.152558 7.90715 0.106827 6.50017 1.36744ZM5.80047 2.34925C4.86753 1.41631 3.35494 1.41631 2.422 2.34925C1.48907 3.28219 1.48907 4.79478 2.422 5.72772L6.50017 9.80589L10.5783 5.72772C11.5113 4.79478 11.5113 3.28219 10.5783 2.34925C9.6454 1.41631 8.13281 1.41631 7.19988 2.34925L6.92248 2.62664C6.68925 2.85988 6.3111 2.85988 6.07786 2.62664L5.80047 2.34925Z" fill="white"/>
</svg>
