<svg width="14" height="17" viewBox="0 0 14 17" fill="none" xmlns="http://www.w3.org/2000/svg">
<path fill-rule="evenodd" clip-rule="evenodd" d="M0.274461 5.65059C0 6.24733 0 6.9262 0 8.28396V12.5244C0 14.41 0 15.3528 0.585786 15.9386C1.11733 16.4701 1.94285 16.5193 3.5 16.5239V11.5244C3.5 10.4198 4.39543 9.52441 5.5 9.52441H8.5C9.60457 9.52441 10.5 10.4198 10.5 11.5244V16.5239C12.0572 16.5193 12.8827 16.4701 13.4142 15.9386C14 15.3528 14 14.41 14 12.5244V8.28396C14 6.92621 14 6.24733 13.7255 5.65059C13.4511 5.05385 12.9356 4.61204 11.9047 3.72842L10.9047 2.87128C9.04143 1.27415 8.10977 0.475586 7 0.475586C5.89023 0.475586 4.95857 1.27415 3.09525 2.87128L2.09525 3.72842C1.06437 4.61204 0.548923 5.05385 0.274461 5.65059ZM8.5 16.5244V11.5244H5.5V16.5244H8.5Z" fill="#122865"/>
</svg>
