<svg width="14" height="13" viewBox="0 0 14 13" fill="none" xmlns="http://www.w3.org/2000/svg">
<path d="M6.99361 1.36001C8.66665 1.36001 8.86477 1.36735 9.52274 1.3967C10.1342 1.42361 10.4644 1.52634 10.6846 1.61195C10.9756 1.72446 11.186 1.86144 11.4037 2.07913C11.6238 2.29926 11.7583 2.50717 11.8709 2.79824C11.9565 3.01838 12.0592 3.35103 12.0861 3.96007C12.1155 4.62049 12.1228 4.81861 12.1228 6.4892C12.1228 8.16224 12.1155 8.36037 12.0861 9.01833C12.0592 9.62982 11.9565 9.96003 11.8709 10.1802C11.7583 10.4712 11.6214 10.6816 11.4037 10.8993C11.1835 11.1194 10.9756 11.2539 10.6846 11.3665C10.4644 11.4521 10.1318 11.5548 9.52274 11.5817C8.86233 11.6111 8.6642 11.6184 6.99361 11.6184C5.32057 11.6184 5.12244 11.6111 4.46448 11.5817C3.85299 11.5548 3.52278 11.4521 3.30264 11.3665C3.01157 11.2539 2.80122 11.117 2.58353 10.8993C2.36339 10.6791 2.22886 10.4712 2.11635 10.1802C2.03074 9.96003 1.92801 9.62738 1.90111 9.01833C1.87175 8.35792 1.86442 8.1598 1.86442 6.4892C1.86442 4.81616 1.87175 4.61804 1.90111 3.96007C1.92801 3.34858 2.03074 3.01838 2.11635 2.79824C2.22886 2.50717 2.36584 2.29682 2.58353 2.07913C2.80367 1.85899 3.01157 1.72446 3.30264 1.61195C3.52278 1.52634 3.85543 1.42361 4.46448 1.3967C5.12244 1.36735 5.32057 1.36001 6.99361 1.36001ZM6.99361 0.232422C5.29366 0.232422 5.08086 0.23976 4.41311 0.269111C3.74781 0.298463 3.29041 0.406085 2.89417 0.560181C2.4808 0.721615 2.13103 0.934414 1.7837 1.28419C1.43393 1.63151 1.22113 1.98129 1.05969 2.39221C0.905597 2.7909 0.797975 3.24585 0.768623 3.91115C0.739271 4.58135 0.731934 4.79415 0.731934 6.4941C0.731934 8.19404 0.739271 8.40684 0.768623 9.07459C0.797975 9.73989 0.905597 10.1973 1.05969 10.5935C1.22113 11.0069 1.43393 11.3567 1.7837 11.704C2.13103 12.0513 2.4808 12.2666 2.89172 12.4256C3.29041 12.5797 3.74536 12.6873 4.41067 12.7166C5.07842 12.746 5.29121 12.7533 6.99116 12.7533C8.69111 12.7533 8.90391 12.746 9.57166 12.7166C10.237 12.6873 10.6944 12.5797 11.0906 12.4256C11.5015 12.2666 11.8513 12.0513 12.1986 11.704C12.546 11.3567 12.7612 11.0069 12.9202 10.596C13.0743 10.1973 13.1819 9.74234 13.2113 9.07704C13.2406 8.40929 13.2479 8.19649 13.2479 6.49654C13.2479 4.7966 13.2406 4.5838 13.2113 3.91605C13.1819 3.25074 13.0743 2.79335 12.9202 2.3971C12.7661 1.98129 12.5533 1.63151 12.2035 1.28419C11.8562 0.93686 11.5064 0.721615 11.0955 0.562627C10.6968 0.408531 10.2419 0.300909 9.57655 0.271557C8.90635 0.23976 8.69355 0.232422 6.99361 0.232422Z" fill="#122865"/>
<path d="M6.99379 3.27734C5.21802 3.27734 3.77734 4.71802 3.77734 6.49379C3.77734 8.26956 5.21802 9.71023 6.99379 9.71023C8.76956 9.71023 10.2102 8.26956 10.2102 6.49379C10.2102 4.71802 8.76956 3.27734 6.99379 3.27734ZM6.99379 8.5802C5.84174 8.5802 4.90738 7.64584 4.90738 6.49379C4.90738 5.34174 5.84174 4.40738 6.99379 4.40738C8.14584 4.40738 9.0802 5.34174 9.0802 6.49379C9.0802 7.64584 8.14584 8.5802 6.99379 8.5802Z" fill="#122865"/>
<path d="M11.0882 3.1513C11.0882 3.56712 10.7507 3.90222 10.3373 3.90222C9.92152 3.90222 9.58643 3.56467 9.58643 3.1513C9.58643 2.73549 9.92397 2.40039 10.3373 2.40039C10.7507 2.40039 11.0882 2.73793 11.0882 3.1513Z" fill="#122865"/>
</svg>
