<svg width="14" height="14" viewBox="0 0 14 14" fill="none" xmlns="http://www.w3.org/2000/svg">
<path d="M12.3214 0.623047H1.65597C1.14506 0.623047 0.731934 1.02639 0.731934 1.52508V12.2346C0.731934 12.7332 1.14506 13.139 1.65597 13.139H12.3214C12.8324 13.139 13.2479 12.7332 13.2479 12.237V1.52508C13.2479 1.02639 12.8324 0.623047 12.3214 0.623047ZM4.44517 11.2885H2.58733V5.3141H4.44517V11.2885ZM3.51625 4.50007C2.91979 4.50007 2.43822 4.0185 2.43822 3.42448C2.43822 2.83046 2.91979 2.34888 3.51625 2.34888C4.11027 2.34888 4.59185 2.83046 4.59185 3.42448C4.59185 4.01605 4.11027 4.50007 3.51625 4.50007ZM11.3974 11.2885H9.54202V8.38443C9.54202 7.69263 9.52979 6.80037 8.57643 6.80037C7.61084 6.80037 7.46417 7.55573 7.46417 8.33554V11.2885H5.61122V5.3141H7.39083V6.13057H7.41528C7.66217 5.66122 8.26842 5.16498 9.17045 5.16498C11.0503 5.16498 11.3974 6.40192 11.3974 8.01042V11.2885Z" fill="#122865"/>
</svg>
