<svg width="16" height="12" viewBox="0 0 16 12" fill="none" xmlns="http://www.w3.org/2000/svg">
<path fill-rule="evenodd" clip-rule="evenodd" d="M0.781049 0.753154C0 1.50631 0 2.71849 0 5.14286V6.85714C0 9.28151 0 10.4937 0.781049 11.2468C1.5621 12 2.81918 12 5.33333 12H10.6667C13.1808 12 14.4379 12 15.219 11.2468C16 10.4937 16 9.28151 16 6.85714V5.14286C16 2.71849 16 1.50631 15.219 0.753154C14.4379 0 13.1808 0 10.6667 0H5.33333C2.81918 0 1.5621 0 0.781049 0.753154ZM3.15973 2.71539C2.75126 2.4528 2.19938 2.55923 1.92707 2.95311C1.65475 3.347 1.76513 3.87917 2.1736 4.14176L7.01387 7.25336C7.61102 7.63724 8.38898 7.63724 8.98613 7.25336L13.8264 4.14176C14.2349 3.87917 14.3452 3.347 14.0729 2.95311C13.8006 2.55923 13.2487 2.4528 12.8403 2.71539L8 5.82699L3.15973 2.71539Z" fill="#122865"/>
</svg>
